<?xml version="1.0" standalone="no"?><!DOCTYPE svg PUBLIC "-//W3C//DTD SVG 1.1//EN" "http://www.w3.org/Graphics/SVG/1.1/DTD/svg11.dtd"><svg class="icon" width="200px" height="200.00px" viewBox="0 0 1024 1024" version="1.1" xmlns="http://www.w3.org/2000/svg"><path d="M772.551111 493.174949c-7.938586 7.951515-18.010505 11.649293-28.069495 11.649293-10.05899 0-20.130909-3.710707-28.069495-11.649293l-165.236363-165.236363v264.261818c0 21.721212-18.010505 39.718788-39.718788 39.718788s-39.718788-17.997576-39.718788-39.718788V327.938586l-165.223435 165.236363c-15.36 15.36-40.77899 15.36-56.138989 0-15.36-15.36-15.36-40.77899 0-56.138989L483.400404 204.024242c15.36-15.36 40.77899-15.36 56.13899 0l233.024646 233.011718c15.347071 15.36 15.347071 40.248889-0.012929 56.138989zM511.469899 733.595152c-20.66101 0-37.598384-16.937374-37.598384-38.128485 0-20.66101 16.937374-38.128485 37.598384-38.128485 20.648081 0 37.598384 16.950303 37.598384 38.128485 0 21.191111-16.950303 38.128485-37.598384 38.128485M511.469899 833.163636c-20.66101 0-37.598384-16.937374-37.598384-38.128484 0-20.66101 16.937374-38.128485 37.598384-38.128485 20.648081 0 37.598384 16.937374 37.598384 38.128485 0 21.178182-16.950303 38.128485-37.598384 38.128484" fill="#d81e06" /></svg>