<?xml version="1.0" standalone="no"?><!DOCTYPE svg PUBLIC "-//W3C//DTD SVG 1.1//EN" "http://www.w3.org/Graphics/SVG/1.1/DTD/svg11.dtd"><svg class="icon" width="200px" height="200.00px" viewBox="0 0 1024 1024" version="1.1" xmlns="http://www.w3.org/2000/svg"><path d="M913.351111 465.635556L557.226667 139.093333h-1.706667a50.915556 50.915556 0 0 0-63.715556 0L137.102222 465.635556a44.088889 44.088889 0 0 0-16.782222 32.142222 44.942222 44.942222 0 0 0 11.946667 34.702222 51.2 51.2 0 0 0 69.404444 4.551111l34.702222-28.444444v275.057777c0 65.137778 19.626667 117.76 87.608889 117.76H398.222222a48.071111 48.071111 0 0 0 49.208889-46.933333v-221.866667a24.462222 24.462222 0 0 1 24.746667-23.893333h108.942222a24.462222 24.462222 0 0 1 25.031111 23.608889v215.893333a51.768889 51.768889 0 0 0 0 9.386667v5.688889A49.208889 49.208889 0 0 0 654.222222 901.12h71.964445c69.404444 0 87.893333-52.906667 87.893333-117.76v-275.342222l34.702222 28.444444a51.2 51.2 0 0 0 69.404445-4.551111 44.657778 44.657778 0 0 0-4.551111-65.991111z" /></svg>